{
  "accessors": [
    {
      "bufferView": 2,
      "componentType": 5126,
      "count": 9730,
      "max": [
        0.3878125548362732,
        0.3992643654346466,
        0.3798290193080902
      ],
      "min": [
        -0.39967411756515503,
        0.14623484015464783,
        -0.3944578468799591
      ],
      "type": "VEC3"
    },
    {
      "bufferView": 2,
      "byteOffset": 116760,
      "componentType": 5126,
      "count": 9730,
      "max": [
        0.998955488204956,
        0.9999959468841553,
        0.9998812675476074
      ],
      "min": [
        -0.9994058012962341,
        -0.9999932050704956,
        -0.9994533658027649
      ],
      "type": "VEC3"
    },
    {
      "bufferView": 1,
      "componentType": 5126,
      "count": 9730,
      "max": [
        1.0000001192092896,
        0.9900000095367432
      ],
      "min": [
        0.0,
        0.07753169536590576
      ],
      "type": "VEC2"
    },
    {
      "bufferView": 0,
      "componentType": 5125,
      "count": 58368,
      "type": "SCALAR"
    },
    {
      "bufferView": 2,
      "byteOffset": 233520,
      "componentType": 5126,
      "count": 14144,
      "max": [
        0.3900277316570282,
        0.40224528312683105,
        0.3928130567073822
      ],
      "min": [
        -0.40952515602111816,
        0.1542043536901474,
        -0.40193331241607666
      ],
      "type": "VEC3"
    },
    {
      "bufferView": 2,
      "byteOffset": 403248,
      "componentType": 5126,
      "count": 14144,
      "max": [
        0.9996283650398254,
        0.9999995231628418,
        0.9995812773704529
      ],
      "min": [
        -0.9999275207519531,
        -0.9999995231628418,
        -0.9991598725318909
      ],
      "type": "VEC3"
    },
    {
      "bufferView": 1,
      "byteOffset": 77840,
      "componentType": 5126,
      "count": 14144,
      "max": [
        1.0000001192092896,
        0.9900000095367432
      ],
      "min": [
        0.0,
        0.07753169536590576
      ],
      "type": "VEC2"
    },
    {
      "bufferView": 0,
      "byteOffset": 233472,
      "componentType": 5125,
      "count": 84852,
      "type": "SCALAR"
    },
    {
      "bufferView": 2,
      "byteOffset": 572976,
      "componentType": 5126,
      "count": 17444,
      "max": [
        0.390919029712677,
        0.3911008834838867,
        0.3935597836971283
      ],
      "min": [
        -0.3889780342578888,
        0.16237415373325348,
        -0.37173014879226685
      ],
      "type": "VEC3"
    },
    {
      "bufferView": 2,
      "byteOffset": 782304,
      "componentType": 5126,
      "count": 17444,
      "max": [
        0.9992508292198181,
        0.9999971389770508,
        0.9996392726898193
      ],
      "min": [
        -0.9999933242797852,
        -0.9999973773956299,
        -0.9995859265327454
      ],
      "type": "VEC3"
    },
    {
      "bufferView": 1,
      "byteOffset": 190992,
      "componentType": 5126,
      "count": 17444,
      "max": [
        1.0000001192092896,
        0.9900000095367432
      ],
      "min": [
        0.0,
        0.07753169536590576
      ],
      "type": "VEC2"
    },
    {
      "bufferView": 0,
      "byteOffset": 572880,
      "componentType": 5125,
      "count": 104652,
      "type": "SCALAR"
    }
  ],
  "asset": {
    "extras": {
      "author": "axonology (https://sketchfab.com/axonology)",
      "license": "CC-BY-NC-SA-4.0 (http://creativecommons.org/licenses/by-nc-sa/4.0/)",
      "source": "https://sketchfab.com/3d-models/microcytes-2a77f3d5441f48069b7cc28f2102838b",
      "title": "Microcytes"
    },
    "generator": "Sketchfab-16.64.0",
    "version": "2.0"
  },
  "bufferViews": [
    {
      "buffer": 0,
      "byteLength": 991488,
      "name": "floatBufferViews",
      "target": 34963
    },
    {
      "buffer": 0,
      "byteLength": 330544,
      "byteOffset": 991488,
      "byteStride": 8,
      "name": "floatBufferViews",
      "target": 34962
    },
    {
      "buffer": 0,
      "byteLength": 991632,
      "byteOffset": 1322032,
      "byteStride": 12,
      "name": "floatBufferViews",
      "target": 34962
    }
  ],
  "buffers": [
    {
      "byteLength": 2313664,
      "uri": "scene.bin"
    }
  ],
  "materials": [
    {
      "doubleSided": true,
      "name": "RBCsurface",
      "pbrMetallicRoughness": {
        "baseColorFactor": [
          0.3771159999999999,
          0.003927329999999998,
          0.008844340000000018,
          1.0
        ],
        "metallicFactor": 0.0,
        "roughnessFactor": 0.389764
      }
    },
    {
      "doubleSided": true,
      "name": "RBCsurface3",
      "pbrMetallicRoughness": {
        "baseColorFactor": [
          0.4147410000000001,
          0.0,
          0.0011353200000000106,
          1.0
        ],
        "metallicFactor": 0.0,
        "roughnessFactor": 0.452756
      }
    },
    {
      "doubleSided": true,
      "name": "RBCsurface2",
      "pbrMetallicRoughness": {
        "baseColorFactor": [
          0.362648,
          0.0,
          0.005607540000000013,
          1.0
        ],
        "metallicFactor": 0.0,
        "roughnessFactor": 0.38189
      }
    }
  ],
  "meshes": [
    {
      "name": "Object_0",
      "primitives": [
        {
          "attributes": {
            "NORMAL": 1,
            "POSITION": 0,
            "TEXCOORD_0": 2
          },
          "indices": 3,
          "material": 0,
          "mode": 4
        }
      ]
    },
    {
      "name": "Object_1",
      "primitives": [
        {
          "attributes": {
            "NORMAL": 5,
            "POSITION": 4,
            "TEXCOORD_0": 6
          },
          "indices": 7,
          "material": 1,
          "mode": 4
        }
      ]
    },
    {
      "name": "Object_2",
      "primitives": [
        {
          "attributes": {
            "NORMAL": 9,
            "POSITION": 8,
            "TEXCOORD_0": 10
          },
          "indices": 11,
          "material": 2,
          "mode": 4
        }
      ]
    }
  ],
  "nodes": [
    {
      "children": [
        1
      ],
      "matrix": [
        1.0,
        0.0,
        0.0,
        0.0,
        0.0,
        2.220446049250313e-16,
        -1.0,
        0.0,
        0.0,
        1.0,
        2.220446049250313e-16,
        0.0,
        0.0,
        0.0,
        0.0,
        1.0
      ],
      "name": "Sketchfab_model"
    },
    {
      "children": [
        2
      ],
      "name": "root"
    },
    {
      "children": [
        3,
        5,
        7
      ],
      "matrix": [
        1.0,
        0.0,
        0.0,
        0.0,
        0.0,
        2.220446049250313e-16,
        1.0,
        0.0,
        0.0,
        -1.0,
        2.220446049250313e-16,
        0.0,
        0.0,
        0.0,
        0.0,
        1.0
      ],
      "name": "GLTF_SceneRootNode"
    },
    {
      "children": [
        4
      ],
      "matrix": [
        0.9847830400703965,
        0.14185846835565705,
        0.10039192669480386,
        0.0,
        -0.14598526342982202,
        0.9886677179366231,
        0.03499209012498727,
        0.0,
        -0.09429033275491867,
        -0.049115358756470585,
        0.9943324467617407,
        0.0,
        0.11837291717529297,
        1.1349154710769653,
        -0.14153063297271729,
        1.0
      ],
      "name": "discocyte1.001_0"
    },
    {
      "mesh": 0,
      "name": "Object_4"
    },
    {
      "children": [
        6
      ],
      "matrix": [
        -0.3047244512777195,
        -0.062064431496585935,
        0.4709997340615125,
        0.0,
        -0.3585364958436917,
        -0.3370690724113447,
        -0.2763798531068728,
        0.0,
        0.3116799190844213,
        -0.44842195261233925,
        0.14255939844976914,
        0.0,
        -0.3772566020488739,
        1.5291388034820557,
        -0.19184774160385132,
        1.0
      ],
      "name": "discocyte2.001_1"
    },
    {
      "mesh": 1,
      "name": "Object_6"
    },
    {
      "children": [
        8
      ],
      "matrix": [
        -0.03412707056463914,
        0.08915006447599778,
        -0.6137375525895743,
        0.0,
        -0.19592555383243584,
        -0.5847366852877369,
        -0.07404296478533481,
        0.0,
        -0.5884171660157987,
        0.18952956544291935,
        0.06024973862099373,
        0.0,
        -0.2046520859003067,
        1.4331676959991455,
        0.4452597200870514,
        1.0
      ],
      "name": "discocyte3.001_2"
    },
    {
      "mesh": 2,
      "name": "Object_8"
    }
  ],
  "scene": 0,
  "scenes": [
    {
      "name": "Sketchfab_Scene",
      "nodes": [
        0
      ]
    }
  ]
}
