{
	"asset":{
		"generator":"Khronos glTF Blender I/O v4.4.56",
		"version":"2.0"
	},
	"scene":0,
	"scenes":[
		{
			"name":"Scene",
			"nodes":[
				8
			]
		}
	],
	"nodes":[
		{
			"mesh":0,
			"name":"Object_4"
		},
		{
			"children":[
				0
			],
			"name":"discocyte1.001_0",
			"rotation":[
				0.021112054586410522,
				-0.04886775091290474,
				0.07225248962640762,
				0.995964765548706
			],
			"translation":[
				0.11837291717529297,
				-0.32074853777885437,
				-0.14153063297271729
			]
		},
		{
			"mesh":1,
			"name":"Object_6"
		},
		{
			"children":[
				2
			],
			"name":"discocyte2.001_1",
			"rotation":[
				0.44853174686431885,
				-0.4153635501861572,
				0.7729336619377136,
				0.16989977657794952
			],
			"scale":[
				0.5644021034240723,
				0.564402163028717,
				0.564402163028717
			],
			"translation":[
				-0.3772566318511963,
				0.07347498834133148,
				-0.1918477714061737
			]
		},
		{
			"mesh":2,
			"name":"Object_8"
		},
		{
			"children":[
				4
			],
			"name":"discocyte3.001_2",
			"rotation":[
				-0.6688574552536011,
				0.06425467878580093,
				0.723425030708313,
				0.158610999584198
			],
			"scale":[
				0.6211169958114624,
				0.6211170554161072,
				0.6211170554161072
			],
			"translation":[
				-0.2046520859003067,
				-0.022496148943901062,
				0.4452597200870514
			]
		},
		{
			"children":[
				1,
				3,
				5
			],
			"name":"GLTF_SceneRootNode",
			"rotation":[
				0.70710688829422,
				0,
				0,
				0.7071066498756409
			]
		},
		{
			"children":[
				6
			],
			"name":"root"
		},
		{
			"children":[
				7
			],
			"name":"Sketchfab_model",
			"rotation":[
				-0.70710688829422,
				0,
				0,
				0.7071066498756409
			]
		}
	],
	"materials":[
		{
			"doubleSided":true,
			"name":"RBCsurface",
			"pbrMetallicRoughness":{
				"baseColorFactor":[
					0.37711599469184875,
					0.003927330020815134,
					0.008844340220093727,
					1
				],
				"metallicFactor":0,
				"roughnessFactor":0.3897640109062195
			}
		},
		{
			"doubleSided":true,
			"name":"RBCsurface3",
			"pbrMetallicRoughness":{
				"baseColorFactor":[
					0.41474100947380066,
					0,
					0.001135320053435862,
					1
				],
				"metallicFactor":0,
				"roughnessFactor":0.45275598764419556
			}
		},
		{
			"doubleSided":true,
			"name":"RBCsurface2",
			"pbrMetallicRoughness":{
				"baseColorFactor":[
					0.36264801025390625,
					0,
					0.005607539787888527,
					1
				],
				"metallicFactor":0,
				"roughnessFactor":0.3818899989128113
			}
		}
	],
	"meshes":[
		{
			"name":"Object_0",
			"primitives":[
				{
					"attributes":{
						"POSITION":0,
						"NORMAL":1,
						"TEXCOORD_0":2
					},
					"indices":3,
					"material":0
				}
			]
		},
		{
			"name":"Object_1",
			"primitives":[
				{
					"attributes":{
						"POSITION":4,
						"NORMAL":5,
						"TEXCOORD_0":6
					},
					"indices":7,
					"material":1
				}
			]
		},
		{
			"name":"Object_2",
			"primitives":[
				{
					"attributes":{
						"POSITION":8,
						"NORMAL":9,
						"TEXCOORD_0":10
					},
					"indices":11,
					"material":2
				}
			]
		}
	],
	"accessors":[
		{
			"bufferView":0,
			"componentType":5126,
			"count":9730,
			"max":[
				0.3878125548362732,
				0.3992643654346466,
				0.3798290193080902
			],
			"min":[
				-0.39967411756515503,
				0.14623484015464783,
				-0.3944578468799591
			],
			"type":"VEC3"
		},
		{
			"bufferView":1,
			"componentType":5126,
			"count":9730,
			"type":"VEC3"
		},
		{
			"bufferView":2,
			"componentType":5126,
			"count":9730,
			"type":"VEC2"
		},
		{
			"bufferView":3,
			"componentType":5123,
			"count":58368,
			"type":"SCALAR"
		},
		{
			"bufferView":4,
			"componentType":5126,
			"count":14144,
			"max":[
				0.3900277316570282,
				0.40224528312683105,
				0.3928130567073822
			],
			"min":[
				-0.40952515602111816,
				0.1542043536901474,
				-0.40193331241607666
			],
			"type":"VEC3"
		},
		{
			"bufferView":5,
			"componentType":5126,
			"count":14144,
			"type":"VEC3"
		},
		{
			"bufferView":6,
			"componentType":5126,
			"count":14144,
			"type":"VEC2"
		},
		{
			"bufferView":7,
			"componentType":5123,
			"count":84852,
			"type":"SCALAR"
		},
		{
			"bufferView":8,
			"componentType":5126,
			"count":17444,
			"max":[
				0.390919029712677,
				0.3911008834838867,
				0.3935597836971283
			],
			"min":[
				-0.3889780342578888,
				0.16237415373325348,
				-0.37173014879226685
			],
			"type":"VEC3"
		},
		{
			"bufferView":9,
			"componentType":5126,
			"count":17444,
			"type":"VEC3"
		},
		{
			"bufferView":10,
			"componentType":5126,
			"count":17444,
			"type":"VEC2"
		},
		{
			"bufferView":11,
			"componentType":5123,
			"count":104652,
			"type":"SCALAR"
		}
	],
	"bufferViews":[
		{
			"buffer":0,
			"byteLength":116760,
			"byteOffset":0,
			"target":34962
		},
		{
			"buffer":0,
			"byteLength":116760,
			"byteOffset":116760,
			"target":34962
		},
		{
			"buffer":0,
			"byteLength":77840,
			"byteOffset":233520,
			"target":34962
		},
		{
			"buffer":0,
			"byteLength":116736,
			"byteOffset":311360,
			"target":34963
		},
		{
			"buffer":0,
			"byteLength":169728,
			"byteOffset":428096,
			"target":34962
		},
		{
			"buffer":0,
			"byteLength":169728,
			"byteOffset":597824,
			"target":34962
		},
		{
			"buffer":0,
			"byteLength":113152,
			"byteOffset":767552,
			"target":34962
		},
		{
			"buffer":0,
			"byteLength":169704,
			"byteOffset":880704,
			"target":34963
		},
		{
			"buffer":0,
			"byteLength":209328,
			"byteOffset":1050408,
			"target":34962
		},
		{
			"buffer":0,
			"byteLength":209328,
			"byteOffset":1259736,
			"target":34962
		},
		{
			"buffer":0,
			"byteLength":139552,
			"byteOffset":1469064,
			"target":34962
		},
		{
			"buffer":0,
			"byteLength":209304,
			"byteOffset":1608616,
			"target":34963
		}
	],
	"buffers":[
		{
			"byteLength":1817920,
			"uri":"scene.bin"
		}
	]
}
